<svg xmlns="http://www.w3.org/2000/svg" width="256" height="256" viewBox="0 0 100 100"><path fill="#64ffda" d="M59.09 82.04L46.67 82.04L46.67 36.23Q46.67 34.70 46.09 33.66Q45.50 32.63 44.15 31.28Q42.80 29.93 41.99 29.93L41.99 29.93Q40.19 29.93 37.22 33.53L37.22 33.53Q37.49 35.78 37.49 38.30L37.49 38.30L37.49 82.04L25.07 82.04L25.07 43.52Q25.07 35.87 24.04 32.81Q23.00 29.75 19.67 25.52L19.67 25.52L30.47 17.96Q33.35 20.03 34.61 22.91L34.61 22.91Q41.09 17.96 43.79 17.96Q46.49 17.96 53.96 24.89L53.96 24.89Q61.43 17.96 64.49 17.96L64.49 17.96Q66.74 17.96 72.19 22.68Q77.63 27.41 78.98 29.34Q80.33 31.28 80.33 34.43L80.33 34.43L80.33 82.04L67.91 82.04L67.91 36.23Q67.91 34.52 67.28 33.57Q66.65 32.63 65.16 31.28Q63.68 29.93 62.55 29.93Q61.43 29.93 59 32.90L59 32.90Q59.09 33.35 59.09 34.43L59.09 34.43L59.09 82.04Z"></path></svg>